# Blender 5.0.1
# www.blender.org
mtllib hideout.mtl
o door_col
v -10.433251 0.056264 8.960682
v -10.433251 4.644864 8.869924
v -10.433251 0.056264 5.916110
v -10.433251 5.680405 6.006869
v -10.277599 0.056264 8.960682
v -10.277599 4.644864 8.869924
v -10.277599 0.056264 5.916110
v -10.277599 5.680405 6.006869
v -10.433251 5.002172 8.999158
v -10.433251 6.037711 6.136104
v -10.085757 6.037711 6.136104
v -10.085757 5.002172 8.999158
v -10.515402 4.558617 9.108380
v -10.515402 5.766652 5.768413
v -10.003606 5.766652 5.768413
v -10.003606 4.558617 9.108380
v -10.515402 4.915924 9.237615
v -10.515402 6.123959 5.897647
v -10.003606 6.123959 5.897647
v -10.003606 4.915924 9.237615
v -10.433251 0.060620 9.180915
v -10.433251 4.649220 9.090155
v -10.433251 5.683959 5.786623
v -10.433251 0.059818 5.695864
v -10.085757 0.059818 5.695864
v -10.085757 5.683959 5.786623
v -10.085757 4.649220 9.090155
v -10.085757 0.060620 9.180915
v -9.981396 5.680405 6.006869
v -9.981396 0.056264 5.916110
v -9.981396 4.644864 8.869924
v -9.981396 0.056264 8.960682
v -9.981396 5.683959 5.786623
v -9.981396 0.059818 5.695864
v -9.981396 4.649220 9.090155
v -9.981396 0.060620 9.180915
vn -1.0000 -0.0000 -0.0000
vn -0.0000 0.9999 0.0161
vn 1.0000 -0.0000 -0.0000
vn -0.0000 0.0198 0.9998
vn -0.0000 -1.0000 -0.0000
vn -0.0000 -0.9404 -0.3401
vn -0.0000 0.9404 0.3401
vn -0.0000 0.3401 -0.9404
vn -0.0000 -0.3401 0.9404
vn -0.0000 0.0161 -0.9999
vn -0.0000 -0.9998 0.0198
vn -0.0000 -0.9999 -0.0161
vn -0.0000 0.9998 -0.0198
vn -0.0000 -0.0161 0.9999
vn -0.0000 -0.0198 -0.9998
vt 0.375000 0.000000
vt 0.625000 0.000000
vt 0.625000 0.250000
vt 0.375000 0.250000
vt 0.625000 0.500000
vt 0.375000 0.500000
vt 0.625000 0.750000
vt 0.375000 0.750000
vt 0.125000 0.500000
vt 0.125000 0.750000
vt 0.875000 0.500000
vt 0.875000 0.750000
vt 0.625000 1.000000
vt 0.375000 1.000000
s 0
f 1/1/1 2/2/1 4/3/1 3/4/1
f 4/3/2 8/5/2 26/5/2 23/3/2
f 7/6/3 8/5/3 6/7/3 5/8/3
f 27/7/4 28/8/4 36/8/4 35/7/4
f 3/9/5 7/6/5 5/8/5 1/10/5
f 6/7/6 8/5/6 15/5/6 16/7/6
f 11/5/7 10/11/7 9/12/7 12/7/7
f 9/12/7 10/11/7 18/11/7 17/12/7
f 11/5/7 12/7/7 20/7/7 19/5/7
f 8/5/6 4/3/6 14/3/6 15/5/6
f 15/5/8 14/3/8 18/3/8 19/5/8
f 16/7/3 15/5/3 19/5/3 20/7/3
f 14/3/1 13/2/1 17/2/1 18/3/1
f 13/13/9 16/7/9 20/7/9 17/13/9
f 12/7/7 9/12/7 17/12/7 20/7/7
f 10/11/7 11/5/7 19/5/7 18/11/7
f 4/3/6 2/2/6 13/2/6 14/3/6
f 2/13/6 6/7/6 16/7/6 13/13/6
f 24/4/10 23/3/10 26/5/10 25/6/10
f 28/8/4 27/7/4 22/13/4 21/14/4
f 3/4/1 4/3/1 23/3/1 24/4/1
f 2/2/1 1/1/1 21/1/1 22/2/1
f 1/10/11 5/8/11 28/8/11 21/10/11
f 28/8/11 5/8/11 32/8/11 36/8/11
f 7/6/12 3/9/12 24/9/12 25/6/12
f 6/7/13 2/13/13 22/13/13 27/7/13
f 32/8/3 31/7/3 35/7/3 36/8/3
f 29/5/3 30/6/3 34/6/3 33/5/3
f 8/5/14 7/6/14 30/6/14 29/5/14
f 26/5/2 8/5/2 29/5/2 33/5/2
f 6/7/13 27/7/13 35/7/13 31/7/13
f 5/8/15 6/7/15 31/7/15 32/8/15
f 7/6/12 25/6/12 34/6/12 30/6/12
f 25/6/10 26/5/10 33/5/10 34/6/10
