# Blender 5.0.1
# www.blender.org
mtllib resource_node.mtl
o resource_node
v -0.051848 0.547058 0.156001
v -0.284374 1.765187 0.494414
v 0.107575 0.653991 -0.119368
v -0.124951 1.872120 0.219045
v 0.238184 0.554924 0.326968
v 0.005658 1.773053 0.665381
v 0.397607 0.661857 0.051600
v 0.165081 1.879987 0.390013
v -0.194950 2.066044 0.535534
v -0.134862 2.106347 0.431747
v -0.025548 2.109312 0.496185
v -0.085636 2.069009 0.599972
v 0.276388 0.447220 0.850649
v -0.723607 0.447219 0.525725
v -0.723607 0.447219 -0.525725
v 0.276388 0.447220 -0.850649
v 0.894426 0.447215 -0.000000
v 0.000000 1.000000 -0.000000
v 0.951058 -0.000000 0.309013
v 0.951058 -0.000000 -0.309013
v 0.000000 -0.000000 1.000000
v 0.587786 0.000000 0.809017
v -0.951058 -0.000000 0.309013
v -0.587786 -0.000000 0.809017
v -0.587786 -0.000000 -0.809017
v -0.951058 -0.000000 -0.309013
v 0.587786 -0.000000 -0.809017
v 0.000000 -0.000000 -1.000000
v 0.688189 0.525736 0.499997
v -0.262869 0.525738 0.809012
v -0.850648 0.525736 -0.000000
v -0.262869 0.525738 -0.809012
v 0.688189 0.525736 -0.499997
v 0.162456 0.850654 0.499995
v 0.525730 0.850652 -0.000000
v -0.425323 0.850654 0.309011
v -0.425323 0.850654 -0.309011
v 0.162456 0.850654 -0.499995
v 0.052843 0.649512 0.076500
v 0.706587 2.654375 -0.149616
v 0.154113 0.581089 -0.237386
v 0.807857 2.585952 -0.463502
v 0.356858 0.563555 0.193323
v 1.010602 2.568418 -0.032793
v 0.458128 0.495131 -0.120563
v 1.111872 2.499994 -0.346679
v 0.975122 3.042579 -0.260218
v 1.013291 3.016790 -0.378523
v 1.127875 2.984393 -0.334492
v 1.089706 3.010182 -0.216187
v -0.481432 0.576876 0.031115
v -1.112741 2.588916 -0.195001
v -0.359252 0.579937 -0.282771
v -0.990561 2.591977 -0.508886
v -0.183976 0.683336 0.147938
v -0.815285 2.695376 -0.078178
v -0.061796 0.686397 -0.165947
v -0.693105 2.698437 -0.392063
v -1.119391 3.060900 -0.305603
v -1.073341 3.062054 -0.423908
v -0.961228 3.102179 -0.379877
v -1.007278 3.101026 -0.261572
v -0.224545 0.501013 0.478975
v -0.749024 1.884326 1.085638
v -0.179384 0.641345 0.198032
v -0.703863 2.024658 0.804695
v 0.084914 0.579364 0.567857
v -0.439565 1.962677 1.174520
v 0.130075 0.719696 0.286914
v -0.394404 2.103009 0.893577
v -0.752681 2.253495 1.157825
v -0.735660 2.306387 1.051936
v -0.619023 2.335918 1.085436
v -0.636045 2.283026 1.191325
v -0.055547 0.403185 -0.297356
v 0.001741 1.896848 -0.839215
v 0.096046 0.298766 -0.569166
v 0.153334 1.792429 -1.111024
v 0.241773 0.445974 -0.147973
v 0.299061 1.939637 -0.689831
v 0.393367 0.341554 -0.419782
v 0.450655 1.835217 -0.961641
v 0.154066 2.202701 -0.995277
v 0.211202 2.163344 -1.097723
v 0.323264 2.179471 -1.041420
v 0.266128 2.218827 -0.938973
v 0.109367 0.449382 0.159026
v 0.439072 1.480526 0.852183
v 0.149688 0.626319 -0.123366
v 0.479392 1.657464 0.569790
v 0.432343 0.354905 0.145945
v 0.762048 1.386049 0.839102
v 0.472663 0.531843 -0.136448
v 0.802368 1.562987 0.556709
v 0.624007 1.730616 0.910974
v 0.639204 1.797305 0.804539
v 0.760935 1.761696 0.799609
v 0.745738 1.695007 0.906044
vn -0.8612 -0.0234 -0.5077
vn 0.4749 0.3186 -0.8203
vn 0.8612 0.0234 0.5077
vn -0.4749 -0.3186 0.8203
vn 0.1809 -0.9476 -0.2633
vn -0.8699 0.3109 -0.3829
vn -0.1809 0.9476 0.2633
vn -0.5082 0.0334 0.8606
vn 0.3815 0.6302 -0.6762
vn 0.7429 0.3546 0.5678
vn 0.4089 0.6617 0.6284
vn -0.4713 0.6617 0.5831
vn -0.7002 0.6617 -0.2680
vn 0.0385 0.6617 -0.7488
vn 0.7240 0.6617 -0.1947
vn 0.2680 0.9435 -0.1947
vn 0.4911 0.7947 -0.3568
vn 0.4089 0.6617 -0.6284
vn -0.1024 0.9435 -0.3151
vn -0.1876 0.7947 -0.5773
vn -0.4713 0.6617 -0.5831
vn -0.3313 0.9435 -0.0000
vn -0.6071 0.7947 -0.0000
vn -0.7002 0.6617 0.2680
vn -0.1024 0.9435 0.3151
vn -0.1876 0.7947 0.5773
vn 0.0385 0.6617 0.7488
vn 0.2680 0.9435 0.1947
vn 0.4911 0.7947 0.3568
vn 0.7240 0.6617 0.1947
vn 0.8897 0.3304 -0.3151
vn 0.7947 0.1876 -0.5773
vn 0.5746 0.3304 -0.7488
vn -0.0247 0.3304 -0.9435
vn -0.3035 0.1876 -0.9342
vn -0.5346 0.3304 -0.7779
vn -0.9050 0.3304 -0.2680
vn -0.9822 0.1876 -0.0000
vn -0.9050 0.3304 0.2680
vn -0.5346 0.3304 0.7779
vn -0.3035 0.1876 0.9342
vn -0.0247 0.3304 0.9435
vn 0.5746 0.3304 0.7488
vn 0.7947 0.1876 0.5773
vn 0.8897 0.3304 0.3151
vn 0.3066 0.1256 -0.9435
vn -0.8026 0.1256 -0.5831
vn -0.8026 0.1256 0.5831
vn 0.3066 0.1256 0.9435
vn 0.9921 0.1256 -0.0000
vn -0.0000 -1.0000 -0.0000
vn -0.9025 0.2552 -0.3468
vn 0.3006 -0.2031 -0.9319
vn 0.9025 -0.2552 0.3468
vn -0.3006 0.2031 0.9319
vn -0.3082 -0.9453 0.1066
vn -0.8117 0.4584 -0.3618
vn 0.3082 0.9453 -0.1066
vn -0.2248 0.4077 0.8850
vn 0.3615 0.0115 -0.9323
vn 0.9484 -0.0392 0.3146
vn -0.8831 -0.3161 -0.3468
vn 0.3627 0.0091 -0.9319
vn 0.8831 0.3161 0.3468
vn -0.3627 -0.0091 0.9319
vn 0.2977 -0.9487 0.1066
vn -0.9271 -0.0979 -0.3618
vn -0.2977 0.9487 -0.1066
vn -0.4197 0.2015 0.8850
vn 0.2877 0.2192 -0.9323
vn 0.7951 0.5185 0.3146
vn -0.9339 -0.2364 -0.2682
vn 0.1423 0.4423 -0.8855
vn 0.9339 0.2364 0.2682
vn -0.1423 -0.4423 0.8855
vn 0.3280 -0.8651 -0.3794
vn -0.9886 0.0194 -0.1492
vn -0.3280 0.8651 0.3794
vn -0.2266 -0.1891 0.9555
vn 0.0473 0.6619 -0.7481
vn 0.8020 0.4728 0.3651
vn -0.8863 -0.1275 -0.4453
vn 0.4618 -0.3181 -0.8280
vn 0.8863 0.1275 0.4453
vn -0.4618 0.3181 0.8280
vn -0.0360 -0.9394 0.3408
vn -0.8380 0.1496 -0.5248
vn 0.0360 0.9394 -0.3408
vn -0.4326 0.5713 0.6974
vn 0.4531 -0.0387 -0.8906
vn 0.8588 0.3937 0.3277
vn -0.9591 0.2805 0.0388
vn 0.1201 0.5271 -0.8413
vn 0.9591 -0.2805 -0.0388
vn -0.1201 -0.5271 0.8413
vn -0.2565 -0.8022 -0.5392
vn -0.8079 0.5444 0.2257
vn 0.2565 0.8022 0.5392
vn -0.0227 -0.2128 0.9768
vn 0.2023 0.7746 -0.5992
vn 0.9880 0.0190 0.1530
vt 0.375000 0.000000
vt 0.625000 0.000000
vt 0.625000 0.250000
vt 0.375000 0.250000
vt 0.625000 0.500000
vt 0.375000 0.500000
vt 0.625000 0.750000
vt 0.375000 0.750000
vt 0.625000 1.000000
vt 0.375000 1.000000
vt 0.125000 0.500000
vt 0.125000 0.750000
vt 0.875000 0.500000
vt 0.875000 0.750000
vt 0.181819 0.314921
vt 0.272728 0.314921
vt 0.227273 0.393651
vt 0.000000 0.314921
vt 0.090910 0.314921
vt 0.045455 0.393651
vt 0.727273 0.314921
vt 0.818182 0.314921
vt 0.772727 0.393651
vt 0.545455 0.314921
vt 0.636364 0.314921
vt 0.590909 0.393651
vt 0.363637 0.314921
vt 0.454546 0.314921
vt 0.409092 0.393651
vt 0.500000 0.393651
vt 0.454546 0.472382
vt 0.681818 0.393651
vt 0.636364 0.472382
vt 0.863636 0.393651
vt 0.818182 0.472382
vt 0.909091 0.314921
vt 0.136365 0.393651
vt 0.090910 0.472382
vt 0.318182 0.393651
vt 0.272728 0.472382
vt 0.409092 0.236191
vt 0.500000 0.236191
vt 0.590909 0.236191
vt 0.681818 0.236191
vt 0.772727 0.236191
vt 0.863636 0.236191
vt 0.045455 0.236191
vt 0.136365 0.236191
vt 0.227273 0.236191
vt 0.318182 0.236191
vt 0.954545 0.236191
s 0
f 1/1/1 2/2/1 4/3/1 3/4/1
f 3/4/2 4/3/2 8/5/2 7/6/2
f 7/6/3 8/5/3 6/7/3 5/8/3
f 5/8/4 6/7/4 2/9/4 1/10/4
f 3/11/5 7/6/5 5/8/5 1/12/5
f 4/3/6 2/2/6 9/2/6 10/3/6
f 11/5/7 10/13/7 9/14/7 12/7/7
f 2/9/8 6/7/8 12/7/8 9/9/8
f 8/5/9 4/3/9 10/3/9 11/5/9
f 6/7/10 8/5/10 11/5/10 12/7/10
f 13/15/11 29/16/11 34/17/11
f 14/18/12 30/19/12 36/20/12
f 15/21/13 31/22/13 37/23/13
f 16/24/14 32/25/14 38/26/14
f 17/27/15 33/28/15 35/29/15
f 35/29/16 38/30/16 18/31/16
f 35/29/17 33/28/17 38/30/17
f 33/28/18 16/24/18 38/30/18
f 38/26/19 37/32/19 18/33/19
f 38/26/20 32/25/20 37/32/20
f 32/25/21 15/21/21 37/32/21
f 37/23/22 36/34/22 18/35/22
f 37/23/23 31/22/23 36/34/23
f 31/22/24 14/36/24 36/34/24
f 36/20/25 34/37/25 18/38/25
f 36/20/26 30/19/26 34/37/26
f 30/19/27 13/15/27 34/37/27
f 34/17/28 35/39/28 18/40/28
f 34/17/29 29/16/29 35/39/29
f 29/16/30 17/27/30 35/39/30
f 20/41/31 33/28/31 17/27/31
f 20/41/32 27/42/32 33/28/32
f 27/42/33 16/24/33 33/28/33
f 28/43/34 32/25/34 16/24/34
f 28/43/35 25/44/35 32/25/35
f 25/44/36 15/21/36 32/25/36
f 26/45/37 31/22/37 15/21/37
f 26/45/38 23/46/38 31/22/38
f 23/46/39 14/36/39 31/22/39
f 24/47/40 30/19/40 14/18/40
f 24/47/41 21/48/41 30/19/41
f 21/48/42 13/15/42 30/19/42
f 22/49/43 29/16/43 13/15/43
f 22/49/44 19/50/44 29/16/44
f 19/50/45 17/27/45 29/16/45
f 27/42/46 28/43/46 16/24/46
f 25/44/47 26/45/47 15/21/47
f 23/46/48 24/51/48 14/36/48
f 21/48/49 22/49/49 13/15/49
f 19/50/50 20/41/50 17/27/50
f 20/41/51 19/50/51 22/49/51 21/48/51 24/47/51 23/46/51 26/45/51 25/44/51 28/43/51 27/42/51
f 39/1/52 40/2/52 42/3/52 41/4/52
f 41/4/53 42/3/53 46/5/53 45/6/53
f 45/6/54 46/5/54 44/7/54 43/8/54
f 43/8/55 44/7/55 40/9/55 39/10/55
f 41/11/56 45/6/56 43/8/56 39/12/56
f 42/3/57 40/2/57 47/2/57 48/3/57
f 49/5/58 48/13/58 47/14/58 50/7/58
f 40/9/59 44/7/59 50/7/59 47/9/59
f 46/5/60 42/3/60 48/3/60 49/5/60
f 44/7/61 46/5/61 49/5/61 50/7/61
f 51/1/62 52/2/62 54/3/62 53/4/62
f 53/4/63 54/3/63 58/5/63 57/6/63
f 57/6/64 58/5/64 56/7/64 55/8/64
f 55/8/65 56/7/65 52/9/65 51/10/65
f 53/11/66 57/6/66 55/8/66 51/12/66
f 54/3/67 52/2/67 59/2/67 60/3/67
f 61/5/68 60/13/68 59/14/68 62/7/68
f 52/9/69 56/7/69 62/7/69 59/9/69
f 58/5/70 54/3/70 60/3/70 61/5/70
f 56/7/71 58/5/71 61/5/71 62/7/71
f 63/1/72 64/2/72 66/3/72 65/4/72
f 65/4/73 66/3/73 70/5/73 69/6/73
f 69/6/74 70/5/74 68/7/74 67/8/74
f 67/8/75 68/7/75 64/9/75 63/10/75
f 65/11/76 69/6/76 67/8/76 63/12/76
f 66/3/77 64/2/77 71/2/77 72/3/77
f 73/5/78 72/13/78 71/14/78 74/7/78
f 64/9/79 68/7/79 74/7/79 71/9/79
f 70/5/80 66/3/80 72/3/80 73/5/80
f 68/7/81 70/5/81 73/5/81 74/7/81
f 75/1/82 76/2/82 78/3/82 77/4/82
f 77/4/83 78/3/83 82/5/83 81/6/83
f 81/6/84 82/5/84 80/7/84 79/8/84
f 79/8/85 80/7/85 76/9/85 75/10/85
f 77/11/86 81/6/86 79/8/86 75/12/86
f 78/3/87 76/2/87 83/2/87 84/3/87
f 85/5/88 84/13/88 83/14/88 86/7/88
f 76/9/89 80/7/89 86/7/89 83/9/89
f 82/5/90 78/3/90 84/3/90 85/5/90
f 80/7/91 82/5/91 85/5/91 86/7/91
f 87/1/92 88/2/92 90/3/92 89/4/92
f 89/4/93 90/3/93 94/5/93 93/6/93
f 93/6/94 94/5/94 92/7/94 91/8/94
f 91/8/95 92/7/95 88/9/95 87/10/95
f 89/11/96 93/6/96 91/8/96 87/12/96
f 90/3/97 88/2/97 95/2/97 96/3/97
f 97/5/98 96/13/98 95/14/98 98/7/98
f 88/9/99 92/7/99 98/7/99 95/9/99
f 94/5/100 90/3/100 96/3/100 97/5/100
f 92/7/101 94/5/101 97/5/101 98/7/101
